<svg xmlns="http://www.w3.org/2000/svg" version="1.1" xmlns:xlink="http://www.w3.org/1999/xlink" xmlns:svgjs="http://svgjs.dev/svgjs" width="1000" height="623" viewBox="0 0 1000 623"><g transform="matrix(1,0,0,1,-0.6060606060606233,0.2522267206477409)"><svg viewBox="0 0 396 247" data-background-color="#ffffff" preserveAspectRatio="xMidYMid meet" height="623" width="1000" xmlns="http://www.w3.org/2000/svg" xmlns:xlink="http://www.w3.org/1999/xlink"><g id="tight-bounds" transform="matrix(1,0,0,1,0.2400000000000091,-0.09999999999999432)"><svg viewBox="0 0 395.52 247.2" height="247.2" width="395.52"><g><svg></svg></g><g><svg viewBox="0 0 395.52 247.2" height="247.2" width="395.52"><g transform="matrix(1,0,0,1,75.54432,76.51370279615796)"><svg viewBox="0 0 244.43135999999998 94.17259440768409" height="94.17259440768409" width="244.43135999999998"><g><svg viewBox="0 0 244.43135999999998 94.17259440768409" height="94.17259440768409" width="244.43135999999998"><g><svg viewBox="0 0 244.43135999999998 94.17259440768409" height="94.17259440768409" width="244.43135999999998"><g><svg viewBox="0 0 244.43135999999998 94.17259440768409" height="94.17259440768409" width="244.43135999999998"><g id="textblocktransform"><svg viewBox="0 0 244.43135999999998 94.17259440768409" height="94.17259440768409" width="244.43135999999998" id="textblock"><g><svg viewBox="0 0 244.43135999999998 94.17259440768409" height="94.17259440768409" width="244.43135999999998"><g transform="matrix(1,0,0,1,0,0)"><svg width="244.43135999999998" viewBox="2.200000047683716 -35.5 93.69000244140625 36.099998474121094" height="94.17259440768409" data-palette-color="#fbeaab"><path d="M3.5 0.25L3.5 0.25Q2.55 0.25 2.2 0.2L2.2 0.2Q2.55-2.7 5.28-14.53 8-26.35 8-29.5L8-29.5Q8-30.1 7.3-31.08 6.6-32.05 5.9-32.7L5.9-32.7 5.25-33.4 5.4-34.2Q12.25-35.5 19.9-35.5L19.9-35.5Q29.1-35.5 29.1-28.25L29.1-28.25Q29.1-24.7 27.33-21.78 25.55-18.85 21.8-17.2L21.8-17.2Q24.6-7.85 26.6-5.1L26.6-5.1Q27.5-3.95 28-3.95L28-3.95Q28.9-3.95 30.8-4.85L30.8-4.85 31.4-5.15 32.55-3.3Q30.7-1.6 28.28-0.5 25.85 0.6 23.73 0.6 21.6 0.6 20.23-1.23 18.85-3.05 17.73-6.6 16.6-10.15 15.45-15.7L15.45-15.7Q13.85-15.6 13-15.6L13-15.6Q10.45-4.65 10.2-0.8L10.2-0.8Q8.05 0.25 3.5 0.25ZM13.75-19L14.95-19Q17.95-19 19.68-21.68 21.4-24.35 21.4-28.05L21.4-28.05Q21.4-30 20.7-31.2 20-32.4 18.6-32.4L18.6-32.4Q18-32.4 17.18-32.23 16.35-32.05 16.35-32L16.35-32Q15.55-26.85 13.75-19L13.75-19ZM43.5-19.05Q43.5-16.95 42.15-11.83 40.8-6.7 40.8-5.13 40.8-3.55 41.25-3.55L41.25-3.55Q41.55-3.55 43.55-4.5L43.55-4.5 44.15-4.8 45-3.05Q44.55-2.65 43.8-2.05 43.05-1.45 41-0.43 38.95 0.6 37.2 0.6 35.45 0.6 34.45-0.48 33.45-1.55 33.45-3.38 33.45-5.2 34.7-9.88 35.95-14.55 35.95-15.95L35.95-15.95Q35.95-18.05 34.65-19.9L34.65-19.9 34.2-20.5 34.25-21.15Q36.9-21.9 42.85-21.9L42.85-21.9Q43.5-21.15 43.5-19.05ZM37.8-27.38Q36.8-28.35 36.8-30 36.8-31.65 38.17-32.9 39.55-34.15 41.35-34.15 43.15-34.15 44.15-33.15 45.15-32.15 45.15-30.53 45.15-28.9 43.72-27.65 42.3-26.4 40.55-26.4 38.8-26.4 37.8-27.38ZM48.1 0.15L48.1 0.15 47.15 0.15Q47.15-2.2 48.57-8.85 50-15.5 50-16.4L50-16.4Q50-18.05 48.6-19.9L48.6-19.9 48.15-20.5 48.2-21.15Q50.9-21.9 56.85-21.9L56.85-21.9Q57.5-21.05 57.55-18.8L57.55-18.8Q61.9-22.15 64.9-22.15L64.9-22.15Q66.7-22.15 67.77-20.9 68.84-19.65 68.84-17.78 68.84-15.9 67.7-11.3 66.55-6.7 66.55-5.13 66.55-3.55 66.95-3.55L66.95-3.55Q67.25-3.55 69.05-4.5L69.05-4.5 69.65-4.8 70.55-3.05Q70.09-2.65 69.34-2.05 68.59-1.45 66.57-0.43 64.55 0.6 62.95 0.6L62.95 0.6Q59.3 0.6 59.3-3.55L59.3-3.55Q59.3-5.3 60.42-10 61.55-14.7 61.55-16.05 61.55-17.4 60.7-17.4L60.7-17.4Q59.25-17.4 57.15-16.15L57.15-16.15Q57-15.3 56.15-11.65L56.15-11.65Q54.4-3.8 54.4-0.55L54.4-0.55Q52.65 0.15 48.1 0.15ZM79.14 0.6L79.14 0.6Q75.69 0.6 73.74-1.83 71.79-4.25 71.79-8.6L71.79-8.6Q71.79-14.15 74.77-18.15 77.74-22.15 82.99-22.15L82.99-22.15 84.79-22.05Q85.64-22.5 86.69-22.5L86.69-22.5Q90.64-22.5 90.64-15.05L90.64-15.05Q92.69-15.15 94.79-15.6L94.79-15.6 95.59-15.8 95.89-13.85Q94.24-13.15 91.44-12.6L91.44-12.6 90.44-12.4Q89.49-7.15 86.59-3.28 83.69 0.6 79.14 0.6ZM81.84-3.7L81.84-3.7Q83.94-3.7 85.62-6.4 87.29-9.1 87.94-12.1L87.94-12.1Q82.59-12.1 82.59-16.1L82.59-16.1Q82.59-17.7 83.24-19.1L83.24-19.1 83.49-19.6Q83.29-19.7 82.99-19.7 82.69-19.7 82.54-19.6L82.54-19.6Q81.29-18.8 80.19-15.85 79.09-12.9 79.09-9.1L79.09-9.1Q79.09-3.7 81.84-3.7Z" opacity="1" transform="matrix(1,0,0,1,0,0)" fill="#fbeaab" class="wordmark-text-0" data-fill-palette-color="primary" id="text-0"></path></svg></g></svg></g></svg></g></svg></g></svg></g></svg></g></svg></g><g><path d="M245.816 0c68.262 0 123.6 55.338 123.6 123.6 0 68.262-55.338 123.6-123.6 123.6-47.219 0-88.254-26.479-109.067-65.398h4.841c20.419 36.487 59.442 61.151 104.226 61.152 65.917 0 119.354-53.436 119.353-119.354 0-65.917-53.436-119.354-119.353-119.354-44.784 0-83.807 24.665-104.226 61.152l-4.841 0c20.812-38.919 61.847-65.398 109.067-65.398z" fill="#fbeaab" stroke="transparent" data-fill-palette-color="tertiary"></path></g></svg></g><defs></defs></svg><rect width="395.52" height="247.2" fill="none" stroke="none" visibility="hidden"></rect></g></svg></g></svg>